<mxfile host="app.diagrams.net" agent="Mozilla/5.0 (Windows NT 10.0; Win64; x64) AppleWebKit/537.36 (KHTML, like Gecko) Chrome/136.0.0.0 Safari/537.36" version="27.0.6">
  <diagram name="Page-1" id="Ocms1D6DM9dSpQU_UKje">
    <mxGraphModel dx="2038" dy="626" grid="1" gridSize="10" guides="1" tooltips="1" connect="1" arrows="1" fold="1" page="1" pageScale="1" pageWidth="850" pageHeight="1100" math="0" shadow="0">
      <root>
        <mxCell id="0" />
        <mxCell id="1" parent="0" />
        <mxCell id="7A8-02SXWjBYyT_56dJ7-1" value="" style="rounded=0;whiteSpace=wrap;html=1;" parent="1" vertex="1">
          <mxGeometry x="160" y="280" width="120" height="80" as="geometry" />
        </mxCell>
        <mxCell id="7A8-02SXWjBYyT_56dJ7-2" value="&lt;span style=&quot;color: rgba(0, 0, 0, 0.87); font-family: Proxima, sans-serif; text-align: start; background-color: rgb(238, 238, 238);&quot;&gt;&lt;font style=&quot;font-size: 12px;&quot;&gt;GateKeeper-02&lt;/font&gt;&lt;/span&gt;" style="rounded=0;whiteSpace=wrap;html=1;" parent="1" vertex="1">
          <mxGeometry x="160" y="440" width="120" height="80" as="geometry" />
        </mxCell>
        <mxCell id="7A8-02SXWjBYyT_56dJ7-3" value="&lt;span style=&quot;color: rgba(0, 0, 0, 0.87); font-family: Proxima, sans-serif; text-align: start; background-color: rgb(238, 238, 238);&quot;&gt;&lt;font style=&quot;font-size: 12px;&quot;&gt;Analysis-Server-01&lt;/font&gt;&lt;/span&gt;" style="rounded=0;whiteSpace=wrap;html=1;" parent="1" vertex="1">
          <mxGeometry x="440" y="280" width="120" height="80" as="geometry" />
        </mxCell>
        <mxCell id="7A8-02SXWjBYyT_56dJ7-4" value="&lt;span style=&quot;color: rgba(0, 0, 0, 0.87); font-family: Proxima, sans-serif; text-align: start; background-color: rgb(238, 238, 238);&quot;&gt;&lt;font style=&quot;font-size: 12px;&quot;&gt;Analysis-Server-02&lt;/font&gt;&lt;/span&gt;" style="rounded=0;whiteSpace=wrap;html=1;" parent="1" vertex="1">
          <mxGeometry x="440" y="440" width="120" height="80" as="geometry" />
        </mxCell>
        <mxCell id="7A8-02SXWjBYyT_56dJ7-5" value="" style="endArrow=none;dashed=1;html=1;dashPattern=1 3;strokeWidth=2;rounded=0;" parent="1" edge="1">
          <mxGeometry width="50" height="50" relative="1" as="geometry">
            <mxPoint x="320" y="240" as="sourcePoint" />
            <mxPoint x="120" y="240" as="targetPoint" />
          </mxGeometry>
        </mxCell>
        <mxCell id="7A8-02SXWjBYyT_56dJ7-6" value="" style="endArrow=none;dashed=1;html=1;dashPattern=1 3;strokeWidth=2;rounded=0;" parent="1" edge="1">
          <mxGeometry width="50" height="50" relative="1" as="geometry">
            <mxPoint x="120" y="240" as="sourcePoint" />
            <mxPoint x="320" y="240" as="targetPoint" />
            <Array as="points">
              <mxPoint x="120" y="560" />
              <mxPoint x="320" y="560" />
            </Array>
          </mxGeometry>
        </mxCell>
        <mxCell id="7A8-02SXWjBYyT_56dJ7-7" value="" style="endArrow=none;dashed=1;html=1;dashPattern=1 3;strokeWidth=2;rounded=0;" parent="1" edge="1">
          <mxGeometry width="50" height="50" relative="1" as="geometry">
            <mxPoint x="400" y="240" as="sourcePoint" />
            <mxPoint x="400" y="240" as="targetPoint" />
            <Array as="points">
              <mxPoint x="400" y="560" />
              <mxPoint x="600" y="560" />
              <mxPoint x="600" y="240" />
            </Array>
          </mxGeometry>
        </mxCell>
        <mxCell id="7A8-02SXWjBYyT_56dJ7-8" value="" style="endArrow=none;html=1;rounded=0;fillColor=#d80073;strokeColor=#A50040;" parent="1" edge="1">
          <mxGeometry width="50" height="50" relative="1" as="geometry">
            <mxPoint x="80" y="160" as="sourcePoint" />
            <mxPoint x="800" y="160" as="targetPoint" />
          </mxGeometry>
        </mxCell>
        <mxCell id="7A8-02SXWjBYyT_56dJ7-9" value="" style="endArrow=none;html=1;rounded=0;fillColor=#008a00;strokeColor=#005700;" parent="1" edge="1">
          <mxGeometry width="50" height="50" relative="1" as="geometry">
            <mxPoint x="80" y="640" as="sourcePoint" />
            <mxPoint x="800" y="640" as="targetPoint" />
          </mxGeometry>
        </mxCell>
        <mxCell id="7A8-02SXWjBYyT_56dJ7-10" value="" style="endArrow=none;html=1;rounded=0;entryX=1;entryY=0.25;entryDx=0;entryDy=0;fillColor=#d80073;strokeColor=#A50040;" parent="1" target="7A8-02SXWjBYyT_56dJ7-1" edge="1">
          <mxGeometry width="50" height="50" relative="1" as="geometry">
            <mxPoint x="320" y="160" as="sourcePoint" />
            <mxPoint x="490" y="390" as="targetPoint" />
            <Array as="points">
              <mxPoint x="320" y="300" />
            </Array>
          </mxGeometry>
        </mxCell>
        <mxCell id="7A8-02SXWjBYyT_56dJ7-11" value="" style="endArrow=none;html=1;rounded=0;exitX=1;exitY=0.25;exitDx=0;exitDy=0;fillColor=#d80073;strokeColor=#A50040;" parent="1" source="7A8-02SXWjBYyT_56dJ7-3" edge="1">
          <mxGeometry width="50" height="50" relative="1" as="geometry">
            <mxPoint x="440" y="440" as="sourcePoint" />
            <mxPoint x="600" y="160" as="targetPoint" />
            <Array as="points">
              <mxPoint x="600" y="300" />
            </Array>
          </mxGeometry>
        </mxCell>
        <mxCell id="7A8-02SXWjBYyT_56dJ7-12" value="" style="endArrow=none;html=1;rounded=0;exitX=1;exitY=0.25;exitDx=0;exitDy=0;fillColor=#d80073;strokeColor=#A50040;" parent="1" source="7A8-02SXWjBYyT_56dJ7-2" edge="1">
          <mxGeometry width="50" height="50" relative="1" as="geometry">
            <mxPoint x="440" y="440" as="sourcePoint" />
            <mxPoint x="360" y="160" as="targetPoint" />
            <Array as="points">
              <mxPoint x="360" y="460" />
            </Array>
          </mxGeometry>
        </mxCell>
        <mxCell id="7A8-02SXWjBYyT_56dJ7-13" value="" style="endArrow=none;html=1;rounded=0;exitX=1;exitY=0.25;exitDx=0;exitDy=0;fillColor=#d80073;strokeColor=#A50040;" parent="1" source="7A8-02SXWjBYyT_56dJ7-4" edge="1">
          <mxGeometry width="50" height="50" relative="1" as="geometry">
            <mxPoint x="440" y="440" as="sourcePoint" />
            <mxPoint x="640" y="160" as="targetPoint" />
            <Array as="points">
              <mxPoint x="640" y="460" />
            </Array>
          </mxGeometry>
        </mxCell>
        <mxCell id="7A8-02SXWjBYyT_56dJ7-14" value="" style="endArrow=none;html=1;rounded=0;entryX=1;entryY=0.75;entryDx=0;entryDy=0;fillColor=#008a00;strokeColor=#005700;" parent="1" target="7A8-02SXWjBYyT_56dJ7-1" edge="1">
          <mxGeometry width="50" height="50" relative="1" as="geometry">
            <mxPoint x="320" y="640" as="sourcePoint" />
            <mxPoint x="490" y="460" as="targetPoint" />
            <Array as="points">
              <mxPoint x="320" y="340" />
            </Array>
          </mxGeometry>
        </mxCell>
        <mxCell id="7A8-02SXWjBYyT_56dJ7-15" value="" style="endArrow=none;html=1;rounded=0;exitX=1;exitY=0.75;exitDx=0;exitDy=0;fillColor=#008a00;strokeColor=#005700;" parent="1" source="7A8-02SXWjBYyT_56dJ7-2" edge="1">
          <mxGeometry width="50" height="50" relative="1" as="geometry">
            <mxPoint x="440" y="510" as="sourcePoint" />
            <mxPoint x="360" y="640" as="targetPoint" />
            <Array as="points">
              <mxPoint x="360" y="500" />
            </Array>
          </mxGeometry>
        </mxCell>
        <mxCell id="7A8-02SXWjBYyT_56dJ7-16" value="" style="endArrow=none;html=1;rounded=0;entryX=0.989;entryY=0.688;entryDx=0;entryDy=0;entryPerimeter=0;fillColor=#008a00;strokeColor=#005700;" parent="1" target="7A8-02SXWjBYyT_56dJ7-3" edge="1">
          <mxGeometry width="50" height="50" relative="1" as="geometry">
            <mxPoint x="600" y="640" as="sourcePoint" />
            <mxPoint x="490" y="460" as="targetPoint" />
            <Array as="points">
              <mxPoint x="600" y="335" />
            </Array>
          </mxGeometry>
        </mxCell>
        <mxCell id="7A8-02SXWjBYyT_56dJ7-17" value="" style="endArrow=none;html=1;rounded=0;entryX=1;entryY=0.75;entryDx=0;entryDy=0;fillColor=#008a00;strokeColor=#005700;" parent="1" target="7A8-02SXWjBYyT_56dJ7-4" edge="1">
          <mxGeometry width="50" height="50" relative="1" as="geometry">
            <mxPoint x="640" y="640" as="sourcePoint" />
            <mxPoint x="490" y="460" as="targetPoint" />
            <Array as="points">
              <mxPoint x="640" y="500" />
            </Array>
          </mxGeometry>
        </mxCell>
        <mxCell id="7A8-02SXWjBYyT_56dJ7-18" value="" style="endArrow=none;html=1;rounded=0;" parent="1" edge="1">
          <mxGeometry width="50" height="50" relative="1" as="geometry">
            <mxPoint x="120" y="520" as="sourcePoint" />
            <mxPoint x="120" y="280" as="targetPoint" />
          </mxGeometry>
        </mxCell>
        <mxCell id="7A8-02SXWjBYyT_56dJ7-19" value="" style="ellipse;shape=cloud;whiteSpace=wrap;html=1;" parent="1" vertex="1">
          <mxGeometry x="-70" y="330" width="120" height="80" as="geometry" />
        </mxCell>
        <mxCell id="7A8-02SXWjBYyT_56dJ7-20" value="" style="endArrow=classic;html=1;rounded=0;" parent="1" edge="1">
          <mxGeometry width="50" height="50" relative="1" as="geometry">
            <mxPoint x="60" y="360" as="sourcePoint" />
            <mxPoint x="110" y="360" as="targetPoint" />
          </mxGeometry>
        </mxCell>
        <mxCell id="7A8-02SXWjBYyT_56dJ7-21" value="" style="endArrow=classic;html=1;rounded=0;" parent="1" edge="1">
          <mxGeometry width="50" height="50" relative="1" as="geometry">
            <mxPoint x="60" y="400" as="sourcePoint" />
            <mxPoint x="110" y="400" as="targetPoint" />
          </mxGeometry>
        </mxCell>
        <mxCell id="7A8-02SXWjBYyT_56dJ7-22" value="10.10.10.0/24" style="text;html=1;align=center;verticalAlign=middle;whiteSpace=wrap;rounded=0;" parent="1" vertex="1">
          <mxGeometry x="720" y="610" width="60" height="30" as="geometry" />
        </mxCell>
        <mxCell id="7A8-02SXWjBYyT_56dJ7-23" value="103.124.95.0/24" style="text;html=1;align=center;verticalAlign=middle;whiteSpace=wrap;rounded=0;" parent="1" vertex="1">
          <mxGeometry x="710" y="130" width="60" height="30" as="geometry" />
        </mxCell>
        <mxCell id="7A8-02SXWjBYyT_56dJ7-24" value="&lt;span style=&quot;color: rgba(0, 0, 0, 0.87); font-family: Proxima, sans-serif; text-align: start; background-color: rgb(238, 238, 238);&quot;&gt;GateKeeper-01&lt;/span&gt;" style="text;html=1;align=center;verticalAlign=middle;whiteSpace=wrap;rounded=0;" parent="1" vertex="1">
          <mxGeometry x="170" y="305" width="90" height="30" as="geometry" />
        </mxCell>
        <mxCell id="7A8-02SXWjBYyT_56dJ7-25" value="Internet" style="text;html=1;align=center;verticalAlign=middle;whiteSpace=wrap;rounded=0;" parent="1" vertex="1">
          <mxGeometry x="-40" y="355" width="60" height="30" as="geometry" />
        </mxCell>
        <mxCell id="7A8-02SXWjBYyT_56dJ7-26" value="ens3" style="text;html=1;align=center;verticalAlign=middle;resizable=0;points=[];autosize=1;strokeColor=none;fillColor=none;rotation=0;" parent="1" vertex="1">
          <mxGeometry x="240" y="280" width="50" height="30" as="geometry" />
        </mxCell>
        <mxCell id="7A8-02SXWjBYyT_56dJ7-27" value="ens7" style="text;whiteSpace=wrap;html=1;" parent="1" vertex="1">
          <mxGeometry x="250" y="330" width="60" height="40" as="geometry" />
        </mxCell>
        <mxCell id="7A8-02SXWjBYyT_56dJ7-28" value="ens3" style="text;html=1;align=center;verticalAlign=middle;resizable=0;points=[];autosize=1;strokeColor=none;fillColor=none;" parent="1" vertex="1">
          <mxGeometry x="240" y="440" width="50" height="30" as="geometry" />
        </mxCell>
        <mxCell id="7A8-02SXWjBYyT_56dJ7-29" value="ens3" style="text;html=1;align=center;verticalAlign=middle;resizable=0;points=[];autosize=1;strokeColor=none;fillColor=none;" parent="1" vertex="1">
          <mxGeometry x="520" y="280" width="50" height="30" as="geometry" />
        </mxCell>
        <mxCell id="7A8-02SXWjBYyT_56dJ7-30" value="ens3" style="text;html=1;align=center;verticalAlign=middle;resizable=0;points=[];autosize=1;strokeColor=none;fillColor=none;" parent="1" vertex="1">
          <mxGeometry x="520" y="440" width="50" height="30" as="geometry" />
        </mxCell>
        <mxCell id="7A8-02SXWjBYyT_56dJ7-31" value="ens7" style="text;whiteSpace=wrap;html=1;" parent="1" vertex="1">
          <mxGeometry x="250" y="490" width="60" height="40" as="geometry" />
        </mxCell>
        <mxCell id="7A8-02SXWjBYyT_56dJ7-32" value="ens7" style="text;whiteSpace=wrap;html=1;" parent="1" vertex="1">
          <mxGeometry x="530" y="330" width="60" height="40" as="geometry" />
        </mxCell>
        <mxCell id="7A8-02SXWjBYyT_56dJ7-33" value="ens7" style="text;whiteSpace=wrap;html=1;" parent="1" vertex="1">
          <mxGeometry x="530" y="490" width="60" height="40" as="geometry" />
        </mxCell>
        <mxCell id="7A8-02SXWjBYyT_56dJ7-34" value="" style="endArrow=classic;startArrow=classic;html=1;rounded=0;" parent="1" edge="1">
          <mxGeometry width="50" height="50" relative="1" as="geometry">
            <mxPoint x="320" y="400" as="sourcePoint" />
            <mxPoint x="400" y="400" as="targetPoint" />
          </mxGeometry>
        </mxCell>
        <mxCell id="7A8-02SXWjBYyT_56dJ7-35" value="" style="endArrow=classic;html=1;rounded=0;" parent="1" edge="1">
          <mxGeometry width="50" height="50" relative="1" as="geometry">
            <mxPoint x="220" y="560" as="sourcePoint" />
            <mxPoint x="220" y="680" as="targetPoint" />
          </mxGeometry>
        </mxCell>
        <mxCell id="7A8-02SXWjBYyT_56dJ7-36" value="Safe Trafic" style="text;strokeColor=none;fillColor=none;align=left;verticalAlign=middle;spacingLeft=4;spacingRight=4;overflow=hidden;points=[[0,0.5],[1,0.5]];portConstraint=eastwest;rotatable=0;whiteSpace=wrap;html=1;" parent="1" vertex="1">
          <mxGeometry x="150" y="570" width="80" height="30" as="geometry" />
        </mxCell>
        <mxCell id="7A8-02SXWjBYyT_56dJ7-37" value="Hosting Env" style="text;html=1;align=center;verticalAlign=middle;whiteSpace=wrap;rounded=0;" parent="1" vertex="1">
          <mxGeometry x="190" y="680" width="60" height="30" as="geometry" />
        </mxCell>
        <mxCell id="5fpEm1wBF6woD8PUGJ_W-4" value=".109" style="text;html=1;align=center;verticalAlign=middle;resizable=0;points=[];autosize=1;strokeColor=none;fillColor=none;rotation=0;" vertex="1" parent="1">
          <mxGeometry x="270" y="275" width="50" height="30" as="geometry" />
        </mxCell>
        <mxCell id="5fpEm1wBF6woD8PUGJ_W-5" value=".212" style="text;html=1;align=center;verticalAlign=middle;resizable=0;points=[];autosize=1;strokeColor=none;fillColor=none;rotation=0;" vertex="1" parent="1">
          <mxGeometry x="270" y="430" width="50" height="30" as="geometry" />
        </mxCell>
        <mxCell id="5fpEm1wBF6woD8PUGJ_W-6" value=".191" style="text;html=1;align=center;verticalAlign=middle;resizable=0;points=[];autosize=1;strokeColor=none;fillColor=none;rotation=0;" vertex="1" parent="1">
          <mxGeometry x="550" y="275" width="50" height="30" as="geometry" />
        </mxCell>
        <mxCell id="5fpEm1wBF6woD8PUGJ_W-7" value=".183" style="text;html=1;align=center;verticalAlign=middle;resizable=0;points=[];autosize=1;strokeColor=none;fillColor=none;rotation=0;" vertex="1" parent="1">
          <mxGeometry x="550" y="430" width="50" height="30" as="geometry" />
        </mxCell>
        <mxCell id="5fpEm1wBF6woD8PUGJ_W-8" value=".15" style="text;whiteSpace=wrap;html=1;rotation=0;" vertex="1" parent="1">
          <mxGeometry x="280" y="335" width="60" height="40" as="geometry" />
        </mxCell>
        <mxCell id="5fpEm1wBF6woD8PUGJ_W-9" value=".6" style="text;html=1;align=center;verticalAlign=middle;resizable=0;points=[];autosize=1;strokeColor=none;fillColor=none;" vertex="1" parent="1">
          <mxGeometry x="280" y="495" width="30" height="30" as="geometry" />
        </mxCell>
        <mxCell id="5fpEm1wBF6woD8PUGJ_W-10" value=".8" style="text;html=1;align=center;verticalAlign=middle;resizable=0;points=[];autosize=1;strokeColor=none;fillColor=none;" vertex="1" parent="1">
          <mxGeometry x="555" y="330" width="30" height="30" as="geometry" />
        </mxCell>
        <mxCell id="5fpEm1wBF6woD8PUGJ_W-11" value=".7" style="text;html=1;align=center;verticalAlign=middle;resizable=0;points=[];autosize=1;strokeColor=none;fillColor=none;" vertex="1" parent="1">
          <mxGeometry x="555" y="495" width="30" height="30" as="geometry" />
        </mxCell>
      </root>
    </mxGraphModel>
  </diagram>
</mxfile>
